<svg width="126" height="116" viewBox="0 0 126 116" fill="none" xmlns="http://www.w3.org/2000/svg">
<path fill-rule="evenodd" clip-rule="evenodd" d="M68.5719 43.2C63.9052 37.3667 49.6719 29.2 30.0719 43.2C21.0719 50.2 8.628 72.8866 29.0719 92.2C34.3646 97.2 50.8646 106.7 70.0719 93.7V100.7H88.5719V0L68.5719 4V43.2ZM54.0719 84.2C62.9084 84.2 70.0719 77.0366 70.0719 68.2C70.0719 59.3634 62.9084 52.2 54.0719 52.2C45.2353 52.2 38.0719 59.3634 38.0719 68.2C38.0719 77.0366 45.2353 84.2 54.0719 84.2Z" fill="#095BBA"/>
<path d="M69.816 80.776C69.816 93.704 80.44 102.664 97.336 102.664C113.976 102.664 125.624 94.344 125.624 80.648C125.624 70.408 119.864 65.544 109.368 63.24L97.464 60.68C92.984 59.656 90.552 57.992 90.552 55.048C90.552 51.592 93.368 49.288 97.848 49.288C102.584 49.288 105.272 52.232 105.272 56.584H123.96C123.96 43.656 113.592 34.952 98.744 34.952C83.384 34.952 71.992 42.632 71.992 55.944C71.992 67.208 77.752 72.328 89.528 74.888L101.304 77.448C106.04 78.472 107.064 80.52 107.064 82.44C107.064 85.768 104.248 87.944 98.104 87.944C92.088 87.944 88.76 85.256 88.504 80.776H69.816Z" fill="#095BBA"/>
<path d="M55 116C85.3757 116 110 91.3757 110 61C110 30.6243 85.3757 6 55 6C24.6243 6 0 30.6243 0 61C0 91.3757 24.6243 116 55 116Z" fill="#0A6AD8"/>
<path d="M96.5 25L3 43L57 5.99999C71.0706 5.72629 89.0198 14.9988 96.5 25Z" fill="#1580EA"/>
<path fill-rule="evenodd" clip-rule="evenodd" d="M63.5719 44.2C58.9052 38.3667 44.6719 30.2 25.0719 44.2C16.0719 51.2 3.628 73.8866 24.0719 93.2C29.3646 98.2 45.8646 107.7 65.0719 94.7V101.7H83.5719V1L63.5719 5V44.2ZM49.0719 85.2C57.9084 85.2 65.0719 78.0366 65.0719 69.2C65.0719 60.3634 57.9084 53.2 49.0719 53.2C40.2353 53.2 33.0719 60.3634 33.0719 69.2C33.0719 78.0366 40.2353 85.2 49.0719 85.2Z" fill="white"/>
<path d="M25.0719 44.2L24.7813 43.7931L24.773 43.7991L24.7649 43.8053L25.0719 44.2ZM63.5719 44.2L63.1815 44.5123L64.0719 45.6254V44.2H63.5719ZM24.0719 93.2L24.4153 92.837L24.0719 93.2ZM65.0719 94.7H65.5719V93.758L64.7916 94.286L65.0719 94.7ZM65.0719 101.7H64.5719V102.2H65.0719V101.7ZM83.5719 101.7V102.2H84.0719V101.7H83.5719ZM83.5719 1.00004H84.0719V0.390137L83.4738 0.509737L83.5719 1.00004ZM63.5719 5.00004L63.4739 4.50974L63.0719 4.59014V5.00004H63.5719ZM25.3625 44.6069C35.073 37.6708 43.4018 36.2587 49.8454 37.2566C56.305 38.257 60.9209 41.6866 63.1815 44.5123L63.9623 43.8877C61.5563 40.8801 56.7222 37.3097 49.9984 36.2684C43.2587 35.2246 34.6708 36.7292 24.7813 43.7931L25.3625 44.6069ZM24.4153 92.837C14.3211 83.3006 12.3716 72.974 14.0219 64.1746C15.679 55.3385 20.9714 48.0227 25.3789 44.5947L24.7649 43.8053C20.1724 47.3773 14.7429 54.9048 13.039 63.9903C11.3282 73.1126 13.3787 83.786 23.7285 93.563L24.4153 92.837ZM64.7916 94.286C45.8496 107.106 29.6091 97.743 24.4153 92.837L23.7285 93.563C29.1201 98.657 45.8796 108.294 65.3521 95.114L64.7916 94.286ZM65.5719 101.7V94.7H64.5719V101.7H65.5719ZM83.5719 101.2H65.0719V102.2H83.5719V101.2ZM83.0719 1.00004V101.7H84.0719V1.00004H83.0719ZM63.67 5.49034L83.67 1.49034L83.4738 0.509737L63.4739 4.50974L63.67 5.49034ZM64.0719 44.2V5.00004H63.0719V44.2H64.0719ZM64.5719 69.2C64.5719 77.7604 57.6323 84.7 49.0719 84.7V85.7C58.1846 85.7 65.5719 78.3127 65.5719 69.2H64.5719ZM49.0719 53.7C57.6323 53.7 64.5719 60.6396 64.5719 69.2H65.5719C65.5719 60.0873 58.1846 52.7 49.0719 52.7V53.7ZM33.5719 69.2C33.5719 60.6396 40.5115 53.7 49.0719 53.7V52.7C39.9592 52.7 32.5719 60.0873 32.5719 69.2H33.5719ZM49.0719 84.7C40.5115 84.7 33.5719 77.7604 33.5719 69.2H32.5719C32.5719 78.3127 39.9592 85.7 49.0719 85.7V84.7Z" fill="white"/>
<path d="M64.816 80.776C64.816 93.704 75.44 102.664 92.336 102.664C108.976 102.664 120.624 94.344 120.624 80.648C120.624 70.408 114.864 65.544 104.368 63.24L92.464 60.68C87.984 59.656 85.552 57.992 85.552 55.048C85.552 51.592 88.368 49.288 92.848 49.288C97.584 49.288 100.272 52.232 100.272 56.584H118.96C118.96 43.656 108.592 34.952 93.744 34.952C78.384 34.952 66.992 42.632 66.992 55.944C66.992 67.208 72.752 72.328 84.528 74.888L96.304 77.448C101.04 78.472 102.064 80.52 102.064 82.44C102.064 85.768 99.248 87.944 93.104 87.944C87.088 87.944 83.76 85.256 83.504 80.776H64.816Z" fill="white"/>
<path d="M49 85C57.8366 85 65 77.8366 65 69C65 60.1634 57.8366 53 49 53C40.1634 53 33 60.1634 33 69C33 77.8366 40.1634 85 49 85Z" fill="#0A6AD8"/>
<path d="M37.6863 57.6863C39.172 56.2006 40.9359 55.022 42.8771 54.2179C44.8183 53.4139 46.8988 53 49 53C51.1011 53 53.1817 53.4139 55.1229 54.2179C57.0641 55.022 58.828 56.2006 60.3137 57.6863C61.7994 59.172 62.978 60.9359 63.7821 62.8771C64.5861 64.8183 65 66.8988 65 69C65 71.1012 64.5861 73.1817 63.7821 75.1229C62.978 77.0641 61.7994 78.828 60.3137 80.3137L49 69L37.6863 57.6863Z" fill="#095BBA"/>
<path d="M3 43C7.8846 25.4896 28.7598 4.98147 57 5.99997L3 43Z" fill="#2A97F2"/>
</svg>
